<svg width="24.000000" height="24.000000" viewBox="0 0 24 24" fill="none" xmlns="http://www.w3.org/2000/svg" xmlns:xlink="http://www.w3.org/1999/xlink">
	<desc>
			Created with Pixso.
	</desc>
	<defs>
		<clipPath id="clip34_2">
			<rect id="Frame" width="24.000000" height="24.000000" fill="white" fill-opacity="0"/>
		</clipPath>
	</defs>
	<rect id="Frame" width="24.000000" height="24.000000" fill="#FFFFFF" fill-opacity="0"/>
	<g clip-path="url(#clip34_2)">
		<path id="Vector" d="M11 4C11 7.03 9.22 8.74 8 10C6.77 11.25 6 13.24 6 15C6 16.59 6.63 18.11 7.75 19.24C8.88 20.36 10.4 21 12 21C13.59 21 15.11 20.36 16.24 19.24C17.36 18.11 18 16.59 18 15C18 13.46 16.94 11.06 16 10C14.21 13 13.2 13 12 12C14 9.04 12 5 11 4Z" stroke="#282828" stroke-opacity="0.800000" stroke-width="1.500000" stroke-linejoin="round"/>
	</g>
</svg>
